<svg id="kity_svg_6" xmlns="http://www.w3.org/2000/svg" xmlns:xlink="http://www.w3.org/1999/xlink" version="1.1" width="821" height="398" style="background: rgb(251, 251, 251); visibility: visible;" viewBox="0 0 821 398"><defs id="kity_defs_7"><linearGradient id="kity_linearGradient_17" x1="0" y1="0" x2="0" y2="1"><stop id="kity_stop_18" offset="0" stop-color="rgb(255, 255, 255)"></stop><stop id="kity_stop_19" offset="1" stop-color="rgb(204, 204, 204)"></stop></linearGradient><marker id="kity_marker_2" orient="auto" refX="6" refY="0" viewBox="-7 -7 14 14" markerWidth="7" markerHeight="7" markerUnits="userSpaceOnUse"><path id="kity_path_3" fill="rgb(115, 191, 118)" stroke="none" d="M6,0A6,6,0,1,1,-6,0A6,6,0,1,1,6,0"></path></marker></defs><g id="kity_g_8"><g id="minder1" text-rendering="optimize-speed"><g id="minder_connect_group1"><path id="kity_path_31" fill="none" stroke="rgb(115, 191, 118)" stroke-width="1" d="M85.5,211.5A183,154,0,0,1,268.5,57.5"></path><path id="kity_path_55" fill="none" stroke="rgb(115, 191, 118)" stroke-width="1" d="M481.5,57.5C501.5,57.5,501.5,31.5,521.5,31.5"></path><path id="kity_path_63" fill="none" stroke="rgb(115, 191, 118)" stroke-width="1" d="M481.5,57.5C501.5,57.5,501.5,83.5,521.5,83.5"></path><path id="kity_path_81" fill="none" stroke="rgb(115, 191, 118)" stroke-width="1" d="M85.5,211.5A183,1,0,0,1,268.5,210.5"></path><path id="kity_path_83" fill="none" stroke="rgb(115, 191, 118)" stroke-width="1" d="M451.5,210.5C471.5,210.5,471.5,145.5,491.5,145.5"></path><path id="kity_path_97" fill="none" stroke="rgb(115, 191, 118)" stroke-width="1" d="M85.5,211.5A183,154,0,0,0,268.5,365.5"></path><path id="kity_path_105" fill="none" stroke="rgb(115, 191, 118)" stroke-width="1" d="M451.5,210.5C471.5,210.5,471.5,197.5,491.5,197.5"></path><path id="kity_path_113" fill="none" stroke="rgb(115, 191, 118)" stroke-width="1" d="M451.5,210.5C471.5,210.5,471.5,275.5,491.5,275.5"></path><path id="kity_path_121" fill="none" stroke="rgb(115, 191, 118)" stroke-width="1" d="M635.5,275.5C655.5,275.5,655.5,249.5,675.5,249.5"></path><path id="kity_path_129" fill="none" stroke="rgb(115, 191, 118)" stroke-width="1" d="M635.5,275.5C655.5,275.5,655.5,301.5,675.5,301.5"></path></g><g id="minder_node1"><path id="node_outline1" fill="rgb(115, 191, 118)" stroke="rgb(115, 191, 118)" d="M25.5,191.5h120a5,5,0,0,1,5,5v30a5,5,0,0,1,-5,5h-120a5,5,0,0,1,-5,-5v-30a5,5,0,0,1,5,-5z" stroke-width="3"></path><g id="node_text1" fill="white"><text id="kity_text_22" text-rendering="inherit" font-size="16" dy=".8em" y="201.09999990463257" x="44.5">句子的形成</text></g></g><g id="kity_g_12" display="none"><path id="kity_path_13" fill="none" stroke="none" d="M44.5,211.5h0v0h0z"></path></g><g id="kity_g_14" display="none"><path id="kity_path_15" fill="none" stroke="none" d="M44.5,211.5h0v0h0z"></path><path id="kity_path_16" fill="none" stroke="none"></path></g><g id="minder_node2"><g id="node_expander1" style="cursor: pointer;"><path id="kity_path_36" fill="white" stroke="gray" d="M269.5,57.5A6,6,0,1,1,257.5,57.5A6,6,0,1,1,269.5,57.5"></path><path id="kity_path_37" fill="none" stroke="gray" d="M259,57.5L268,57.5"></path></g><path id="node_outline2" fill="rgb(238, 246, 238)" stroke="rgb(115, 191, 118)" d="M273.5,44.5h205a3,3,0,0,1,3,3v20a3,3,0,0,1,-3,3h-205a3,3,0,0,1,-3,-3v-20a3,3,0,0,1,3,-3z" stroke-width="1"></path><g id="node_text2" fill="black"><text id="kity_text_33" text-rendering="inherit" font-size="14" dy=".8em" y="48.40000009536743" x="290.5">主语(subject) +&#xa0;动词(verb)</text></g></g><g id="minder_node5"><g id="node_expander4" style="cursor: pointer;" display="none"><path id="kity_path_60" fill="white" stroke="gray" d="M521.5,31.5A6,6,0,1,1,509.5,31.5A6,6,0,1,1,521.5,31.5"></path><path id="kity_path_61" fill="none" stroke="gray"></path></g><path id="node_outline5" fill="none" stroke="none" d="M526.5,20.5h108a5,5,0,0,1,5,5v12a5,5,0,0,1,-5,5h-108a5,5,0,0,1,-5,-5v-12a5,5,0,0,1,5,-5z" stroke-width="3"></path><g id="node_text5" fill="black"><text id="kity_text_57" text-rendering="inherit" font-size="12" dy=".8em" y="23.700000047683716" x="531.5">John works hard.</text></g></g><g id="minder_node6"><g id="node_expander5" style="cursor: pointer;" display="none"><path id="kity_path_68" fill="white" stroke="gray" d="M521.5,83.5A6,6,0,1,1,509.5,83.5A6,6,0,1,1,521.5,83.5"></path><path id="kity_path_69" fill="none" stroke="gray"></path></g><path id="node_outline6" fill="none" stroke="none" d="M526.5,72.5h147a5,5,0,0,1,5,5v12a5,5,0,0,1,-5,5h-147a5,5,0,0,1,-5,-5v-12a5,5,0,0,1,5,-5z" stroke-width="3"></path><g id="node_text6" fill="black"><text id="kity_text_65" text-rendering="inherit" font-size="12" dy=".8em" y="75.70000004768372" x="531.5">He plays the piano well.</text></g></g><g id="minder_node8"><g id="node_expander7" style="cursor: pointer;"><path id="kity_path_88" fill="white" stroke="gray" d="M269.5,210.5A6,6,0,1,1,257.5,210.5A6,6,0,1,1,269.5,210.5"></path><path id="kity_path_89" fill="none" stroke="gray" d="M259,210.5L268,210.5"></path></g><path id="node_outline8" fill="rgb(238, 246, 238)" stroke="rgb(115, 191, 118)" d="M273.5,197.5h175a3,3,0,0,1,3,3v20a3,3,0,0,1,-3,3h-175a3,3,0,0,1,-3,-3v-20a3,3,0,0,1,3,-3z" stroke-width="1"></path><g id="node_text8" fill="black"><text id="kity_text_85" text-rendering="inherit" font-size="14" dy=".8em" y="201.40000009536743" x="290.5">省略主语，形成祈使句</text></g></g><g id="minder_node9"><g id="node_expander8" style="cursor: pointer;" display="none"><path id="kity_path_94" fill="white" stroke="gray" d="M491.5,145.5A6,6,0,1,1,479.5,145.5A6,6,0,1,1,491.5,145.5"></path><path id="kity_path_95" fill="none" stroke="gray"></path></g><path id="node_outline9" fill="none" stroke="none" d="M496.5,134.5h75a5,5,0,0,1,5,5v12a5,5,0,0,1,-5,5h-75a5,5,0,0,1,-5,-5v-12a5,5,0,0,1,5,-5z" stroke-width="3"></path><g id="node_text9" fill="black"><text id="kity_text_91" text-rendering="inherit" font-size="12" dy=".8em" y="137.70000004768372" x="501.5">Work hard.</text></g></g><g id="minder_node10"><g id="node_expander9" style="cursor: pointer;" display="none"><path id="kity_path_102" fill="white" stroke="gray" d="M269.5,365.5A6,6,0,1,1,257.5,365.5A6,6,0,1,1,269.5,365.5"></path><path id="kity_path_103" fill="none" stroke="gray"></path></g><path id="node_outline10" fill="rgb(238, 246, 238)" stroke="rgb(115, 191, 118)" d="M273.5,352.5h401a3,3,0,0,1,3,3v20a3,3,0,0,1,-3,3h-401a3,3,0,0,1,-3,-3v-20a3,3,0,0,1,3,-3z" stroke-width="1"></path><g id="node_text10" fill="black"><text id="kity_text_99" text-rendering="inherit" font-size="14" dy=".8em" y="356.40000009536743" x="290.5">祈使句句首为动词原形(v.原)，因为句首省略了 You should</text></g></g><g id="minder_node11"><g id="node_expander10" style="cursor: pointer;" display="none"><path id="kity_path_110" fill="white" stroke="gray" d="M491.5,197.5A6,6,0,1,1,479.5,197.5A6,6,0,1,1,491.5,197.5"></path><path id="kity_path_111" fill="none" stroke="gray"></path></g><path id="node_outline11" fill="none" stroke="none" d="M496.5,186.5h60a5,5,0,0,1,5,5v12a5,5,0,0,1,-5,5h-60a5,5,0,0,1,-5,-5v-12a5,5,0,0,1,5,-5z" stroke-width="3"></path><g id="node_text11" fill="black"><text id="kity_text_107" text-rendering="inherit" font-size="12" dy=".8em" y="189.70000004768372" x="501.5">Be quiet.</text></g></g><g id="minder_node12"><g id="node_expander11" style="cursor: pointer;"><path id="kity_path_118" fill="white" stroke="gray" d="M491.5,275.5A6,6,0,1,1,479.5,275.5A6,6,0,1,1,491.5,275.5"></path><path id="kity_path_119" fill="none" stroke="gray" d="M481,275.5L490,275.5"></path></g><path id="node_outline12" fill="none" stroke="none" d="M496.5,264.5h134a5,5,0,0,1,5,5v12a5,5,0,0,1,-5,5h-134a5,5,0,0,1,-5,-5v-12a5,5,0,0,1,5,-5z" stroke-width="3"></path><g id="node_text12" fill="black"><text id="kity_text_115" text-rendering="inherit" font-size="12" dy=".8em" y="267.7000000476837" x="501.5">句首 + Don't --&gt;&#xa0;否定</text></g></g><g id="minder_node13"><g id="node_expander12" style="cursor: pointer;" display="none"><path id="kity_path_126" fill="white" stroke="gray" d="M675.5,249.5A6,6,0,1,1,663.5,249.5A6,6,0,1,1,675.5,249.5"></path><path id="kity_path_127" fill="none" stroke="gray"></path></g><path id="node_outline13" fill="none" stroke="none" d="M680.5,238.5h116a5,5,0,0,1,5,5v12a5,5,0,0,1,-5,5h-116a5,5,0,0,1,-5,-5v-12a5,5,0,0,1,5,-5z" stroke-width="3"></path><g id="node_text13" fill="black"><text id="kity_text_123" text-rendering="inherit" font-size="12" dy=".8em" y="241.70000004768372" x="685.5">Don't fool around.</text></g></g><g id="minder_node14"><g id="node_expander13" style="cursor: pointer;" display="none"><path id="kity_path_134" fill="white" stroke="gray" d="M675.5,301.5A6,6,0,1,1,663.5,301.5A6,6,0,1,1,675.5,301.5"></path><path id="kity_path_135" fill="none" stroke="gray"></path></g><path id="node_outline14" fill="none" stroke="none" d="M680.5,290.5h88a5,5,0,0,1,5,5v12a5,5,0,0,1,-5,5h-88a5,5,0,0,1,-5,-5v-12a5,5,0,0,1,5,-5z" stroke-width="3"></path><g id="node_text14" fill="black"><text id="kity_text_131" text-rendering="inherit" font-size="12" dy=".8em" y="293.7000000476837" x="685.5">Don't be silly.</text></g></g></g></g></svg>